<svg xmlns="http://www.w3.org/2000/svg" xmlns:xlink="http://www.w3.org/1999/xlink" width="561.834" height="495.403" viewBox="0 0 561.834 495.403">
  <defs>
    <linearGradient id="linear-gradient" x1="-0.476" y1="0.881" x2="0.102" y2="-0.387" gradientUnits="objectBoundingBox">
      <stop offset="0" stop-color="#a8675f"/>
      <stop offset="0.119" stop-color="#b57664"/>
      <stop offset="0.346" stop-color="#d79c73"/>
      <stop offset="0.535" stop-color="#f7c080"/>
      <stop offset="0.553" stop-color="#f7c080"/>
      <stop offset="1" stop-color="#ffc983"/>
    </linearGradient>
  </defs>
  <g id="Group_31" data-name="Group 31" transform="translate(-731 -294.199)">
    <g id="log" transform="translate(604.09 155.559)">
      <g id="Group_18" data-name="Group 18" transform="translate(176.072 279.168)">
        <path id="Path_11" data-name="Path 11" d="M263.755,179.955l-.74,13.321,55.673-9.8-56.444,30.255-.64,16.97a7.508,7.508,0,0,1-7.5,7.227H148.329a7.509,7.509,0,0,1-7.5-7.213l-1.989-50.591a7.509,7.509,0,0,1,7.482-7.8l109.919-.287A7.5,7.5,0,0,1,263.755,179.955Z" transform="translate(-138.832 -172.03)" fill="#ffd91f"/>
        <g id="Group_17" data-name="Group 17" transform="translate(16.353 17.652)">
          <path id="Path_12" data-name="Path 12" d="M160.633,203.49V192.884h-10.84V203.49h-5.082V178.926h5.082v10.6h10.84v-10.6h5.082V203.49Z" transform="translate(-144.711 -177.402)" fill="#3d3d3d"/>
          <path id="Path_13" data-name="Path 13" d="M153.658,190.4c0-7.285,5.182-9.315,9.115-9.315,4.028,0,8.467,2.133,8.467,8.709,0,.453-.022.924-.067,1.421H158.979c.086,4.759,2.075,5.858,5.179,5.858a20.029,20.029,0,0,0,6.473-1.252V199a20.378,20.378,0,0,1-6.776,1.255C158.342,200.256,153.658,197.341,153.658,190.4Zm12.706-2.036c-.273-2.812-1.391-4.437-3.391-4.437-1.869,0-3.31,1.455-3.808,4.437Z" transform="translate(-128.771 -173.559)" fill="#3d3d3d"/>
          <path id="Path_14" data-name="Path 14" d="M161.414,204.466V178.378h4.809v26.088Z" transform="translate(-114.953 -178.378)" fill="#3d3d3d"/>
          <path id="Path_15" data-name="Path 15" d="M164.969,204.466V178.378h4.809v26.088Z" transform="translate(-108.62 -178.378)" fill="#3d3d3d"/>
          <path id="Path_16" data-name="Path 16" d="M186.877,190.67c0,5.049-3.088,9.588-9.421,9.588-6.3,0-9.418-4.512-9.418-9.588,0-5.051,3.088-9.588,9.418-9.588C183.758,181.085,186.877,185.594,186.877,190.67Zm-6.776-5.355a3.857,3.857,0,0,0-5.288,0c-1.388,1.355-1.455,3.421-1.455,5.355s.07,4,1.455,5.352a3.857,3.857,0,0,0,5.288,0c1.388-1.355,1.455-3.421,1.455-5.352S181.489,186.67,180.1,185.316Z" transform="translate(-103.154 -173.561)" fill="#3d3d3d"/>
          <path id="Path_17" data-name="Path 17" d="M180.53,195.756h-3.864c0-3.933-.17-7.861-.473-11.758V178.95H181V184C180.7,187.9,180.53,191.823,180.53,195.756Zm-4.337,7.691v-4.809H181v4.809Z" transform="translate(-88.622 -177.359)" fill="#3d3d3d"/>
        </g>
        <path id="Path_18" data-name="Path 18" d="M146.32,172.318l109.919-.286a7.509,7.509,0,0,1,7.516,7.925l-.74,13.321,55.673-9.8-56.444,30.252-.64,16.97a7.505,7.505,0,0,1-7.5,7.224H148.329a7.509,7.509,0,0,1-7.5-7.213l-1.989-50.591A7.508,7.508,0,0,1,146.32,172.318Z" transform="translate(-138.832 -172.032)" opacity="0.45" fill="url(#linear-gradient)"/>
      </g>
      <g id="Group_30" data-name="Group 30" transform="translate(126.91 109.699)">
        <g id="Group_29" data-name="Group 29" transform="translate(0 0)">
          <g id="Group_28" data-name="Group 28">
            <g id="Group_23" data-name="Group 23" transform="translate(146.465)">
              <g id="Group_22" data-name="Group 22">
                <path id="Path_19" data-name="Path 19" d="M276.288,173.91H230.471s4.522,36.736-15.824,47.345c0,0,14.17,11.429,38.734,11.429s38.734-11.429,38.734-11.429C271.766,210.646,276.288,173.91,276.288,173.91Z" transform="translate(-116.913 4.697)" fill="#be7b50"/>
                <path id="Path_20" data-name="Path 20" d="M346.917,189.791c-.309-8.959-6.467-6.737-10.422-4.364a330.323,330.323,0,0,0-3.672-55.515h-118.9a330.344,330.344,0,0,0-3.672,55.515c-3.953-2.373-10.114-4.6-10.423,4.364-.414,12.039,6.72,40.675,18.656,34.461,9.435,20.862,27.415,49.323,54.891,49.323s45.454-28.464,54.889-49.323C340.2,230.466,347.334,201.829,346.917,189.791Z" transform="translate(-135.232 -73.688)" fill="#be7b50"/>
                <path id="Path_22" data-name="Path 22" d="M405.623,196.572c-20.211-5.66-46.018-8.626-65.528-8.339a8.566,8.566,0,0,1-2.729,2.957c-6.492,4.361-14.589,6.317-22.837,6.278-8.247.039-16.345-1.916-22.837-6.278a8.536,8.536,0,0,1-2.729-2.957c-19.51-.286-45.317,2.676-65.528,8.339-29.624,8.295-42.566,96.64-46.822,135.026-1.2,10.8,48.566,27.379,48.566,27.379h87.828l1.522-.606,1.522.606h87.828s49.762-16.584,48.566-27.379C448.19,293.212,435.247,204.867,405.623,196.572Z" transform="translate(-176.592 30.181)" fill="#3d3d3d"/>
                <g id="Group_19" data-name="Group 19" transform="translate(108.194 117.549)">
                  <circle id="Ellipse_2" data-name="Ellipse 2" cx="6.275" cy="6.275" r="6.275" fill="#3d3d3d"/>
                  <circle id="Ellipse_3" data-name="Ellipse 3" cx="6.275" cy="6.275" r="6.275" transform="translate(47.031)" fill="#3d3d3d"/>
                </g>
                <path id="Path_23" data-name="Path 23" d="M217.264,165.856s26.845,8.376,49.9,0c0,0-3.855,15.494-24.889,15.494S217.264,165.856,217.264,165.856Z" transform="translate(-104.133 -9.651)" fill="#fff"/>
                <path id="Path_24" data-name="Path 24" d="M214.511,181.661c-3.858,31.446,0,40.48,0,40.48s8.036-5.215,20.091-16.944c1.554-1.513-2.173-14.813,0-16.4,8.613-6.288,21.54-7.934,40.011-7.138,16.944.731,31.981,2.443,41.152,7.138,3.709,1.9,0,16.4,0,16.4s20.11,12.37,21.862,22.049a88.037,88.037,0,0,0,5.785-29.694,61.962,61.962,0,0,0-5.785-28.044c-4.471-9.256-3.385-8-8.358-11.575-8.831-6.349-19.925-19.292-48.229-19.292C237.957,138.64,218.369,150.215,214.511,181.661Z" transform="translate(-138.934 -109.699)" fill="#3d3d3d"/>
                <g id="Group_20" data-name="Group 20" transform="translate(74.99 69.461)">
                  <path id="Path_25" data-name="Path 25" d="M203.552,167.618l8.94,31.911,3.435,3.62.242-18.647a33.691,33.691,0,0,1-.242-14.792l4.584-35.04Z" transform="translate(-203.552 -134.671)" fill="#3d3d3d"/>
                </g>
                <g id="Group_21" data-name="Group 21" transform="translate(184.311 69.461)">
                  <path id="Path_26" data-name="Path 26" d="M259.816,168.629l-8.94,32.89-3.435,4.525-.245-20.012a35.764,35.764,0,0,0,.245-15.245l-4.584-36.114Z" transform="translate(-242.854 -134.671)" fill="#3d3d3d"/>
                </g>
                <path id="Path_40" data-name="Path 40" d="M0,0H22.152V6.62H0Z" transform="translate(153.049 97.978)" fill="#3d3d3d"/>
                <rect id="Rectangle_2" data-name="Rectangle 2" width="22.152" height="6.62" transform="translate(102.055 97.978)" fill="#3d3d3d"/>
              </g>
            </g>
            <g id="Group_24" data-name="Group 24" transform="translate(156.704 269.751)">
              <path id="Path_27" data-name="Path 27" d="M425.233,202.835l-241.34-3.485c-3.535.081-3.686,3.257-3.508,5.076l13.6,139.907a2.689,2.689,0,0,0,2.868,2.056l219.477.078c2.528,0,4.807-1.369,4.89-2.957l7.391-138.074C428.685,203.928,427.308,202.866,425.233,202.835Z" transform="translate(-180.338 -199.35)" fill="#707070"/>
              <path id="Path_28" data-name="Path 28" d="M406.849,311.964l1.268-23.688c-13.733-3.585-27.448-7.221-41.123-11-38.247-10.556-76.44-21.746-113.8-34.917-17.045-6.011-33.971-12.356-50.63-19.287-6.042-2.515-12.144-5.516-18.317-8.475l9.46,97.363Z" transform="translate(-173.366 -172.179)" fill="#707070" opacity="0.5"/>
              <path id="Path_29" data-name="Path 29" d="M410.937,257.611H186.528c-1.76,0-3.31-.576-3.462-1.287l-.723-3.411c-.154-.723,1.165-1.309,2.943-1.309H412.179c1.781,0,3.1.587,2.943,1.309l-.723,3.411C414.247,257.035,412.7,257.611,410.937,257.611Z" transform="translate(-171.446 -103.991)" fill="#bec2cb"/>
            </g>
            <rect id="Rectangle_3" data-name="Rectangle 3" width="485.803" height="77.539" transform="translate(38.333 446.805)" fill="#313131"/>
            <path id="Path_32" data-name="Path 32" d="M683.329,277.122H132.323c-2.99,0-5.413-2.111-5.413-4.712V261.478c0-2.6,2.423-4.712,5.413-4.712H683.329c2.99,0,5.416,2.111,5.416,4.712V272.41C688.744,275.01,686.319,277.122,683.329,277.122Z" transform="translate(-126.91 179.861)" fill="#3cc"/>
            <g id="Group_27" data-name="Group 27" transform="translate(44.577 353.087)">
              <g id="Group_26" data-name="Group 26">
                <path id="Path_33" data-name="Path 33" d="M189.165,236.586H146.5c-.868,0-1.218-.985-.8-2.159l1.371-3.841a2.546,2.546,0,0,1,2.017-1.78h37.484a2.542,2.542,0,0,1,2.014,1.78l1.374,3.841C190.383,235.6,190.033,236.586,189.165,236.586Z" transform="translate(-138.318 -228.806)" fill="#ccc"/>
                <rect id="Rectangle_4" data-name="Rectangle 4" width="6.409" height="7.78" transform="translate(38.113)" fill="#f5f4f2" opacity="0.55"/>
                <rect id="Rectangle_5" data-name="Rectangle 5" width="9.268" height="7.78" transform="translate(13.813)" fill="#b2aca8" opacity="0.55"/>
                <path id="Path_34" data-name="Path 34" d="M184.778,301.6H153.3L144.851,231.6h48.383Z" transform="translate(-139.524 -223.823)" fill="#e0e0e0"/>
                <g id="Group_25" data-name="Group 25" transform="translate(7.112 22.556)">
                  <path id="Path_35" data-name="Path 35" d="M186.474,268.619l3.83-31.7H145.493l3.827,31.7Z" transform="translate(-145.493 -236.915)" fill="#999"/>
                </g>
                <path id="Path_36" data-name="Path 36" d="M165.643,301.6H153.971l1.68-63.645L170.31,231.6Z" transform="translate(-123.276 -223.823)" fill="#f5f4f2" opacity="0.55"/>
                <path id="Path_37" data-name="Path 37" d="M160.632,301.568h-6.069L146.846,231.6H158.6Z" transform="translate(-135.97 -223.823)" fill="#ccc" opacity="0.55"/>
                <path id="Path_38" data-name="Path 38" d="M191.8,243.439l1.43-11.836H144.851l1.43,11.836Z" transform="translate(-139.524 -223.823)" fill="#dbd8dc" opacity="0.75"/>
                <path id="Path_39" data-name="Path 39" d="M199.947,238.855H144.961a2.023,2.023,0,0,1-2.025-2.025v-3.969a2.027,2.027,0,0,1,2.025-2.025h54.986a2.023,2.023,0,0,1,2.022,2.025v3.969A2.023,2.023,0,0,1,199.947,238.855Z" transform="translate(-142.936 -225.189)" fill="#eae8e5"/>
                <rect id="Rectangle_6" data-name="Rectangle 6" width="12.976" height="8.016" transform="translate(37.376 5.649)" fill="#f5f4f2" opacity="0.55"/>
                <rect id="Rectangle_7" data-name="Rectangle 7" width="15.797" height="8.016" transform="translate(4.425 5.649)" fill="#e0e0e0"/>
              </g>
            </g>
          </g>
          <text id="ASUS" transform="translate(255 349.742)" fill="#bec2cb" font-size="20" font-family="SegoeUI-Bold, Segoe UI" font-weight="700"><tspan x="0" y="0">ASUS</tspan></text>
        </g>
      </g>
    </g>
    <text id="Ozzy" transform="translate(795 639)" fill="#707070" font-size="8" font-family="SegoeUI, Segoe UI"><tspan x="0" y="0">Ozzy</tspan></text>
  </g>
</svg>
