<?xml version="1.0" encoding="iso-8859-1"?>
<!-- Generator: Adobe Illustrator 19.0.0, SVG Export Plug-In . SVG Version: 6.00 Build 0)  -->
<svg version="1.1" id="Capa_1" xmlns="http://www.w3.org/2000/svg" xmlns:xlink="http://www.w3.org/1999/xlink" x="0px" y="0px"
	 viewBox="0 0 512 512" style="enable-background:new 0 0 512 512;" xml:space="preserve">
<g>
	<g>
		<g>
			<path style="fill:white;" d="M109.714,0H12.19C5.461,0,0,5.461,0,12.19v97.524c0,6.729,5.461,12.19,12.19,12.19h97.524
				c6.729,0,12.19-5.461,12.19-12.19V12.19C121.905,5.461,116.443,0,109.714,0z M97.524,97.524H24.381V24.381h73.143V97.524z"/>
			<path style="fill:white;" d="M304.762,0h-97.524c-6.729,0-12.19,5.461-12.19,12.19v97.524c0,6.729,5.461,12.19,12.19,12.19
				h97.524c6.741,0,12.19-5.461,12.19-12.19V12.19C316.952,5.461,311.503,0,304.762,0z M292.571,97.524h-73.143V24.381h73.143
				V97.524z"/>
			<path style="fill:white;" d="M499.81,0h-97.524c-6.741,0-12.19,5.461-12.19,12.19v97.524c0,6.729,5.449,12.19,12.19,12.19
				h97.524c6.741,0,12.19-5.461,12.19-12.19V12.19C512,5.461,506.551,0,499.81,0z M487.619,97.524h-73.143V24.381h73.143V97.524z"/>
			<path style="fill:white;" d="M109.714,390.095H12.19c-6.729,0-12.19,5.449-12.19,12.19v97.524C0,506.551,5.461,512,12.19,512
				h97.524c6.729,0,12.19-5.449,12.19-12.19v-97.524C121.905,395.544,116.443,390.095,109.714,390.095z M97.524,487.619H24.381
				v-73.143h73.143V487.619z"/>
			<path style="fill:white;" d="M304.762,390.095h-97.524c-6.729,0-12.19,5.449-12.19,12.19v97.524
				c0,6.741,5.461,12.19,12.19,12.19h97.524c6.741,0,12.19-5.449,12.19-12.19v-97.524
				C316.952,395.544,311.503,390.095,304.762,390.095z M292.571,487.619h-73.143v-73.143h73.143V487.619z"/>
			<path style="fill:white;" d="M499.81,390.095h-97.524c-6.741,0-12.19,5.449-12.19,12.19v97.524
				c0,6.741,5.449,12.19,12.19,12.19h97.524c6.741,0,12.19-5.449,12.19-12.19v-97.524C512,395.544,506.551,390.095,499.81,390.095z
				 M487.619,487.619h-73.143v-73.143h73.143V487.619z"/>
			<path style="fill:white;" d="M109.714,195.048H12.19c-6.729,0-12.19,5.461-12.19,12.19v97.524c0,6.741,5.461,12.19,12.19,12.19
				h97.524c6.729,0,12.19-5.449,12.19-12.19v-97.524C121.905,200.509,116.443,195.048,109.714,195.048z M97.524,292.571H24.381
				v-73.143h73.143V292.571z"/>
			<path style="fill:white;" d="M304.762,195.048h-97.524c-6.729,0-12.19,5.461-12.19,12.19v97.524
				c0,6.741,5.461,12.19,12.19,12.19h97.524c6.741,0,12.19-5.449,12.19-12.19v-97.524
				C316.952,200.509,311.503,195.048,304.762,195.048z M292.571,292.571h-73.143v-73.143h73.143V292.571z"/>
			<path style="fill:white;" d="M499.81,195.048h-97.524c-6.741,0-12.19,5.461-12.19,12.19v97.524
				c0,6.741,5.449,12.19,12.19,12.19h97.524c6.741,0,12.19-5.449,12.19-12.19v-97.524C512,200.509,506.551,195.048,499.81,195.048z
				 M487.619,292.571h-73.143v-73.143h73.143V292.571z"/>
		</g>
	</g>
</g>
<g>
</g>
<g>
</g>
<g>
</g>
<g>
</g>
<g>
</g>
<g>
</g>
<g>
</g>
<g>
</g>
<g>
</g>
<g>
</g>
<g>
</g>
<g>
</g>
<g>
</g>
<g>
</g>
<g>
</g>
</svg>
