<svg xmlns="http://www.w3.org/2000/svg" width="846.839" height="856.453" viewBox="0 0 846.839 856.453">
  <g id="Group_8" data-name="Group 8" transform="translate(-591.469 -1433.716) rotate(42)">
    <g id="Group_7" data-name="Group 7" transform="translate(1741.432 1050.12) rotate(-89)">
      <path id="Union_4" data-name="Union 4" d="M174.233,446.309l138.96-192.8H347.3L174.233,505.18ZM0,253.513H34.109l138.96,192.8V505.18Zm313.194-1.851L174.233,58.871V0L347.3,251.662ZM0,251.662,173.07,0V58.871L34.109,251.662Z" fill="#687f6f"/>
      <path id="Union_5" data-name="Union 5" d="M174.233,446.309l138.96-192.8H347.3L174.233,505.18ZM0,253.513H34.109l138.96,192.8V505.18Zm313.194-1.851L174.233,58.871V0L347.3,251.662ZM0,251.662,173.07,0V58.871L34.109,251.662Z" transform="translate(176.33)" fill="#687f6f"/>
      <path id="Union_6" data-name="Union 6" d="M174.233,446.309l138.96-192.8H347.3L174.233,505.18ZM0,253.513H34.109l138.96,192.8V505.18Zm313.194-1.851L174.233,58.871V0L347.3,251.662ZM0,251.662,173.07,0V58.871L34.109,251.662Z" transform="translate(352.66)" fill="#687f6f"/>
    </g>
  </g>
</svg>
