<?xml version="1.0" encoding="iso-8859-1"?>
<!-- Generator: Adobe Illustrator 16.0.0, SVG Export Plug-In . SVG Version: 6.00 Build 0)  -->
<!DOCTYPE svg PUBLIC "-//W3C//DTD SVG 1.1//EN" "http://www.w3.org/Graphics/SVG/1.1/DTD/svg11.dtd">
<svg version="1.1" id="Capa_1" xmlns="http://www.w3.org/2000/svg" xmlns:xlink="http://www.w3.org/1999/xlink" x="0px" y="0px"
	 width="30.625px" height="30.625px" viewBox="0 0 30.625 30.625" style="enable-background:new 0 0 30.625 30.625;"
	 xml:space="preserve">
<g>
	<g>
		<path d="M22.768,26.797H7.856V21.1c-0.497-0.074-0.976-0.203-1.439-0.367v7.824c0,1.137,0.932,2.068,2.069,2.068h13.653
			c1.137,0,2.068-0.932,2.068-2.068v-6.432c-0.464,0.162-0.941,0.289-1.439,0.361V26.797z M15.312,29.591
			c-0.57,0-1.034-0.463-1.034-1.034c0-0.572,0.464-1.033,1.034-1.033s1.034,0.461,1.034,1.033
			C16.346,29.128,15.882,29.591,15.312,29.591z"/>
		<path d="M7.856,3.28h14.912v3.242c0.496,0.076,0.979,0.195,1.439,0.357V2.067C24.207,0.929,23.275,0,22.139,0H8.486
			C7.348,0,6.417,0.93,6.417,2.067v3.427C6.879,5.332,7.36,5.212,7.856,5.137V3.28z M13.128,1.491h4.367
			c0.139,0,0.251,0.112,0.251,0.251c0,0.138-0.112,0.25-0.251,0.25h-4.367c-0.139,0-0.251-0.112-0.251-0.25
			C12.877,1.603,12.99,1.491,13.128,1.491z"/>
		<path d="M21.546,7.55c-2.06,0-3.903,0.901-5.175,2.324c0.441,0.99,0.691,2.085,0.691,3.237c0,1.745-0.559,3.394-1.583,4.761
			c0.345,0.616,0.78,1.177,1.291,1.659l-0.231,3.871l3.299-2.18c0.548,0.141,1.117,0.221,1.709,0.221
			c3.838,0,6.948-3.109,6.948-6.947C28.495,10.661,25.384,7.55,21.546,7.55z M17.432,13.431c0-0.688,0.559-1.246,1.248-1.246
			c0.688,0,1.245,0.558,1.245,1.246c0,0.689-0.558,1.247-1.245,1.247C17.99,14.678,17.432,14.121,17.432,13.431z M21.546,19.188
			c-1.918,0-3.473-1.521-3.473-2.398s1.555,0.037,3.473,0.037c1.919,0,3.476-0.914,3.476-0.037S23.465,19.188,21.546,19.188z
			 M24.415,14.678c-0.688,0-1.246-0.558-1.246-1.247c0-0.688,0.558-1.246,1.246-1.246s1.247,0.558,1.247,1.246
			C25.662,14.121,25.104,14.678,24.415,14.678z"/>
		<path d="M10.787,19.838l3.299,2.18l-0.231-3.871c1.335-1.265,2.171-3.051,2.171-5.035c0-3.837-3.11-6.947-6.947-6.947
			c-3.838,0-6.948,3.11-6.948,6.947c0,3.837,3.11,6.947,6.948,6.947C9.669,20.059,10.239,19.979,10.787,19.838z M11.945,10.799
			c0.689,0,1.248,0.559,1.248,1.247s-0.559,1.246-1.248,1.246c-0.688,0-1.246-0.558-1.246-1.246S11.257,10.799,11.945,10.799z
			 M4.962,12.046c0-0.688,0.558-1.247,1.247-1.247c0.688,0,1.246,0.559,1.246,1.247s-0.558,1.246-1.246,1.246
			C5.52,13.292,4.962,12.735,4.962,12.046z M5.603,15.404c0-0.877,1.556,0.035,3.475,0.035c1.918,0,3.473-0.913,3.473-0.035
			c0,0.877-1.555,2.398-3.473,2.398C7.159,17.803,5.603,16.281,5.603,15.404z"/>
	</g>
</g>
<g>
</g>
<g>
</g>
<g>
</g>
<g>
</g>
<g>
</g>
<g>
</g>
<g>
</g>
<g>
</g>
<g>
</g>
<g>
</g>
<g>
</g>
<g>
</g>
<g>
</g>
<g>
</g>
<g>
</g>
</svg>
