<svg xmlns="http://www.w3.org/2000/svg" width="554.052" height="544.099" viewBox="0 0 554.052 544.099">
  <g id="Group_2" data-name="Group 2" transform="translate(-636.031 481.327) rotate(-48)">
    <path id="Exclusion_1" data-name="Exclusion 1" d="M155.283,225.8h-30.6l-46.1-63.953L32.49,225.8l0,0H1.884l59.955-87.183,16.744,23.23,16.741-23.227,59.953,87.172Zm-59.959-87.18,0-.006L78.582,114.267l.539-.784L157.162,0V52.821L96.3,137.266l-.97,1.346Zm-33.485,0,0-.006L0,52.821V0L56.584,82.279l-7.057-9.771,7.057,9.771,22,31.988L61.843,138.609Z" transform="translate(608.791 311.87)" fill="#000000af"/>
    <path id="Path_5" data-name="Path 5" d="M0,230.239,29.537,274.03,32,0,6.632,17.114Z" transform="translate(478.998 555.566) rotate(-146)" fill="rgba(0,0,0,0.33)"/>
    <path id="Exclusion_3" data-name="Exclusion 3" d="M157.162,225.8l-.01-.014L78.582,111.531,95.326,87.183l0-.006L78.583,63.953,124.679,0h30.6L95.33,87.177l0,.006,61.836,85.793V225.8ZM0,225.8V172.977L61.837,87.186l16.746,24.344L.01,225.784ZM61.837,87.186l0-.006L1.884,0h30.6L78.583,63.953,61.841,87.18Z" transform="translate(608.791 539.331)" fill="#000000af"/>
    <path id="Path_4" data-name="Path 4" d="M0,43.791,29.537,0,32,274.03,6.632,256.916Z" transform="translate(632.233 748.614) rotate(146)" fill="rgba(0,0,0,0.33)"/>
    <path id="Exclusion_2" data-name="Exclusion 2" d="M155.283,225.8h-30.6l-46.1-63.953L32.49,225.8l0,0H1.884l59.955-87.183,16.744,23.23,16.741-23.227,59.953,87.172Zm-59.959-87.18,0-.006L78.582,114.267,157.162,0V52.821l-61.834,85.79Zm-33.485,0,0-.006L0,52.821V0L78.582,114.267,61.843,138.609Z" transform="translate(766.999 311.87)" fill="#000000af"/>
    <path id="Exclusion_4" data-name="Exclusion 4" d="M157.162,225.8l-.01-.014L78.582,111.531,95.326,87.183l0-.006L78.583,63.953,124.679,0h30.6L95.33,87.177l0,.006,61.836,85.793V225.8ZM0,225.8V172.977L61.837,87.186l16.746,24.344L.01,225.784ZM61.837,87.186l0-.006L1.884,0h30.6L78.583,63.953,61.841,87.18Z" transform="translate(766.999 539.331)" fill="#000000af"/>
    <path id="Path_10" data-name="Path 10" d="M0,43.791,29.537,0,32,274.03,6.632,256.916Z" transform="translate(900.721 328.385) rotate(-34)" fill="rgba(0,0,0,0.33)"/>
    <path id="Path_12" data-name="Path 12" d="M0,230.239,29.537,274.03,32,0,6.632,17.114Z" transform="translate(1053.957 521.433) rotate(34)" fill="rgba(0,0,0,0.33)"/>
  </g>
</svg>
